# xmcd CD database file
#
# Track frame offsets:
#	151
#	29589
#	75574
#
# Disc length: 1826 seconds
#
# Revision: 0
# Processed by: cddbd v1.4PL0 Copyright (c) Steve Scherf et al.
# Submitted via: NeoAudio 9.9.9
#
DISCID=1a072003
DTITLE=Derek Trucks Band - Henrey J. Kaiser Auditorium - Oakland, CA - 12-31-01 - D2
DYEAR=2001
DGENRE=Rhythmic Soul
TTITLE0=Maki Madni >
TTITLE1=Joyful Noise
TTITLE2=Afro Blue
EXTD=YEAR: 2001
EXTT0=
EXTT1=
EXTT2=
PLAYORDER=
